<mxfile host="65bd71144e">
    <diagram id="fFQ4FI2WHlDWYevL5R3L" name="第 1 页">
        <mxGraphModel dx="1948" dy="698" grid="1" gridSize="10" guides="1" tooltips="1" connect="1" arrows="1" fold="1" page="1" pageScale="1" pageWidth="827" pageHeight="1169" background="#ffffff" math="0" shadow="0">
            <root>
                <mxCell id="0"/>
                <mxCell id="1" parent="0"/>
                <mxCell id="73" style="edgeStyle=orthogonalEdgeStyle;rounded=1;sketch=1;jumpStyle=arc;jumpSize=6;html=1;fontSize=9;endArrow=block;strokeColor=default;strokeWidth=1;entryX=0.5;entryY=1;entryDx=0;entryDy=0;" parent="1" source="54" target="zGGGupaVOVgGhXEfBQD1-1" edge="1">
                    <mxGeometry relative="1" as="geometry">
                        <mxPoint x="7.5" y="580" as="targetPoint"/>
                    </mxGeometry>
                </mxCell>
                <mxCell id="74" style="edgeStyle=orthogonalEdgeStyle;rounded=1;sketch=1;jumpStyle=arc;jumpSize=6;html=1;entryX=0.5;entryY=1;entryDx=0;entryDy=0;fontSize=9;endArrow=block;strokeColor=default;strokeWidth=1;" parent="1" source="54" target="36" edge="1">
                    <mxGeometry relative="1" as="geometry"/>
                </mxCell>
                <mxCell id="75" value="流水线&lt;br&gt;暂停信号" style="edgeLabel;html=1;align=center;verticalAlign=middle;resizable=0;points=[];fontSize=19;rounded=1;sketch=1;" parent="74" vertex="1" connectable="0">
                    <mxGeometry x="0.4489" y="1" relative="1" as="geometry">
                        <mxPoint x="403" y="-31" as="offset"/>
                    </mxGeometry>
                </mxCell>
                <mxCell id="77" style="edgeStyle=orthogonalEdgeStyle;rounded=1;sketch=1;jumpStyle=arc;jumpSize=6;html=1;fontSize=19;endArrow=block;strokeColor=default;strokeWidth=1;" parent="1" source="AuDMVpWPDX14XM7IN1FL-46" target="54" edge="1">
                    <mxGeometry relative="1" as="geometry">
                        <mxPoint x="-40" y="610" as="targetPoint"/>
                        <Array as="points">
                            <mxPoint x="-100" y="600"/>
                        </Array>
                    </mxGeometry>
                </mxCell>
                <mxCell id="82" value="if_stall_req" style="edgeLabel;html=1;align=center;verticalAlign=middle;resizable=0;points=[];fontSize=19;rounded=1;sketch=1;" parent="77" vertex="1" connectable="0">
                    <mxGeometry x="-0.9094" y="1" relative="1" as="geometry">
                        <mxPoint y="-1" as="offset"/>
                    </mxGeometry>
                </mxCell>
                <mxCell id="60" style="edgeStyle=orthogonalEdgeStyle;rounded=1;sketch=1;jumpStyle=arc;html=1;fontSize=14;jumpSize=12;entryX=0.061;entryY=0.671;entryDx=0;entryDy=0;entryPerimeter=0;exitX=0.92;exitY=0.31;exitDx=0;exitDy=0;exitPerimeter=0;" parent="1" source="54" target="6" edge="1">
                    <mxGeometry relative="1" as="geometry">
                        <mxPoint x="-560" y="280" as="targetPoint"/>
                        <mxPoint x="660" y="545" as="sourcePoint"/>
                        <Array as="points">
                            <mxPoint x="660" y="565"/>
                            <mxPoint x="660" y="210"/>
                            <mxPoint x="-560" y="210"/>
                            <mxPoint x="-560" y="469"/>
                        </Array>
                    </mxGeometry>
                </mxCell>
                <mxCell id="61" value="TRAP_PC" style="edgeLabel;html=1;align=center;verticalAlign=middle;resizable=0;points=[];fontSize=19;rounded=1;sketch=1;" parent="60" vertex="1" connectable="0">
                    <mxGeometry x="0.1277" relative="1" as="geometry">
                        <mxPoint as="offset"/>
                    </mxGeometry>
                </mxCell>
                <mxCell id="AuDMVpWPDX14XM7IN1FL-55" style="edgeStyle=orthogonalEdgeStyle;rounded=1;orthogonalLoop=1;jettySize=auto;html=1;fontSize=12;sketch=1;" parent="1" source="zGGGupaVOVgGhXEfBQD1-1" target="AuDMVpWPDX14XM7IN1FL-47" edge="1">
                    <mxGeometry relative="1" as="geometry"/>
                </mxCell>
                <mxCell id="zGGGupaVOVgGhXEfBQD1-1" value="IF/ID" style="rounded=1;whiteSpace=wrap;html=1;fontSize=8;fillColor=#fff2cc;strokeColor=#d6b656;sketch=1;" parent="1" vertex="1">
                    <mxGeometry x="20" y="350" width="30" height="210" as="geometry"/>
                </mxCell>
                <mxCell id="AuDMVpWPDX14XM7IN1FL-58" style="edgeStyle=orthogonalEdgeStyle;rounded=1;orthogonalLoop=1;jettySize=auto;html=1;exitX=1;exitY=0.5;exitDx=0;exitDy=0;entryX=0.083;entryY=0.5;entryDx=0;entryDy=0;entryPerimeter=0;fontSize=12;sketch=1;" parent="1" source="AuDMVpWPDX14XM7IN1FL-5" target="AuDMVpWPDX14XM7IN1FL-49" edge="1">
                    <mxGeometry relative="1" as="geometry"/>
                </mxCell>
                <mxCell id="49" style="edgeStyle=orthogonalEdgeStyle;html=1;exitX=1;exitY=0.25;exitDx=0;exitDy=0;jumpStyle=line;rounded=1;sketch=1;" parent="1" source="AuDMVpWPDX14XM7IN1FL-5" target="AuDMVpWPDX14XM7IN1FL-47" edge="1">
                    <mxGeometry relative="1" as="geometry">
                        <mxPoint x="150" y="320" as="targetPoint"/>
                        <Array as="points">
                            <mxPoint x="280" y="403"/>
                            <mxPoint x="280" y="340"/>
                            <mxPoint x="150" y="340"/>
                        </Array>
                    </mxGeometry>
                </mxCell>
                <mxCell id="50" value="前一条指令&lt;br&gt;是否为load类型" style="edgeLabel;html=1;align=center;verticalAlign=middle;resizable=0;points=[];sketch=1;rounded=1;" parent="49" vertex="1" connectable="0">
                    <mxGeometry x="-0.1689" y="-1" relative="1" as="geometry">
                        <mxPoint x="-88" y="31" as="offset"/>
                    </mxGeometry>
                </mxCell>
                <mxCell id="AuDMVpWPDX14XM7IN1FL-5" value="ID/EX" style="rounded=1;whiteSpace=wrap;html=1;fontSize=8;fillColor=#fff2cc;strokeColor=#d6b656;sketch=1;" parent="1" vertex="1">
                    <mxGeometry x="240" y="350" width="30" height="210" as="geometry"/>
                </mxCell>
                <mxCell id="AuDMVpWPDX14XM7IN1FL-61" style="edgeStyle=orthogonalEdgeStyle;rounded=1;orthogonalLoop=1;jettySize=auto;html=1;exitX=1;exitY=0.5;exitDx=0;exitDy=0;entryX=0.057;entryY=0.5;entryDx=0;entryDy=0;entryPerimeter=0;fontSize=12;sketch=1;" parent="1" source="AuDMVpWPDX14XM7IN1FL-6" target="AuDMVpWPDX14XM7IN1FL-50" edge="1">
                    <mxGeometry relative="1" as="geometry"/>
                </mxCell>
                <mxCell id="AuDMVpWPDX14XM7IN1FL-6" value="EX/ME" style="rounded=1;whiteSpace=wrap;html=1;fontSize=8;fillColor=#fff2cc;strokeColor=#d6b656;sketch=1;" parent="1" vertex="1">
                    <mxGeometry x="470" y="350" width="30" height="210" as="geometry"/>
                </mxCell>
                <mxCell id="AuDMVpWPDX14XM7IN1FL-70" style="edgeStyle=orthogonalEdgeStyle;rounded=1;orthogonalLoop=1;jettySize=auto;html=1;entryX=0.083;entryY=0.5;entryDx=0;entryDy=0;entryPerimeter=0;fontSize=12;sketch=1;" parent="1" source="AuDMVpWPDX14XM7IN1FL-7" target="AuDMVpWPDX14XM7IN1FL-69" edge="1">
                    <mxGeometry relative="1" as="geometry"/>
                </mxCell>
                <mxCell id="AuDMVpWPDX14XM7IN1FL-7" value="ME/WB" style="rounded=1;whiteSpace=wrap;html=1;fontSize=8;fillColor=#fff2cc;strokeColor=#d6b656;sketch=1;" parent="1" vertex="1">
                    <mxGeometry x="690" y="350" width="30" height="210" as="geometry"/>
                </mxCell>
                <mxCell id="AuDMVpWPDX14XM7IN1FL-26" value="" style="group;sketch=1;rounded=1;fillColor=#fff2cc;strokeColor=#d6b656;" parent="1" vertex="1" connectable="0">
                    <mxGeometry x="775" y="750" width="90" height="90" as="geometry"/>
                </mxCell>
                <mxCell id="AuDMVpWPDX14XM7IN1FL-27" value="" style="group;sketch=1;rounded=1;fillColor=#fff2cc;strokeColor=#d6b656;" parent="AuDMVpWPDX14XM7IN1FL-26" vertex="1" connectable="0">
                    <mxGeometry width="90" height="60" as="geometry"/>
                </mxCell>
                <mxCell id="AuDMVpWPDX14XM7IN1FL-28" value="" style="rounded=1;whiteSpace=wrap;html=1;fontSize=8;sketch=1;fillColor=#fff2cc;strokeColor=#d6b656;" parent="AuDMVpWPDX14XM7IN1FL-27" vertex="1">
                    <mxGeometry width="30" height="30" as="geometry"/>
                </mxCell>
                <mxCell id="AuDMVpWPDX14XM7IN1FL-29" value="" style="rounded=1;whiteSpace=wrap;html=1;fontSize=8;sketch=1;fillColor=#fff2cc;strokeColor=#d6b656;" parent="AuDMVpWPDX14XM7IN1FL-27" vertex="1">
                    <mxGeometry x="30" width="30" height="30" as="geometry"/>
                </mxCell>
                <mxCell id="AuDMVpWPDX14XM7IN1FL-30" value="" style="rounded=1;whiteSpace=wrap;html=1;fontSize=8;sketch=1;fillColor=#fff2cc;strokeColor=#d6b656;" parent="AuDMVpWPDX14XM7IN1FL-27" vertex="1">
                    <mxGeometry x="60" width="30" height="30" as="geometry"/>
                </mxCell>
                <mxCell id="AuDMVpWPDX14XM7IN1FL-31" value="" style="rounded=1;whiteSpace=wrap;html=1;fontSize=8;sketch=1;fillColor=#fff2cc;strokeColor=#d6b656;" parent="AuDMVpWPDX14XM7IN1FL-27" vertex="1">
                    <mxGeometry x="60" y="30" width="30" height="30" as="geometry"/>
                </mxCell>
                <mxCell id="AuDMVpWPDX14XM7IN1FL-32" value="" style="rounded=1;whiteSpace=wrap;html=1;fontSize=8;sketch=1;fillColor=#fff2cc;strokeColor=#d6b656;" parent="AuDMVpWPDX14XM7IN1FL-27" vertex="1">
                    <mxGeometry x="30" y="30" width="30" height="30" as="geometry"/>
                </mxCell>
                <mxCell id="AuDMVpWPDX14XM7IN1FL-33" value="" style="rounded=1;whiteSpace=wrap;html=1;fontSize=8;sketch=1;fillColor=#fff2cc;strokeColor=#d6b656;" parent="AuDMVpWPDX14XM7IN1FL-27" vertex="1">
                    <mxGeometry y="30" width="30" height="30" as="geometry"/>
                </mxCell>
                <mxCell id="AuDMVpWPDX14XM7IN1FL-34" value="CSR寄存器组" style="text;html=1;strokeColor=#d6b656;fillColor=#fff2cc;align=center;verticalAlign=middle;whiteSpace=wrap;rounded=1;fontSize=12;sketch=1;" parent="AuDMVpWPDX14XM7IN1FL-26" vertex="1">
                    <mxGeometry y="60" width="90" height="30" as="geometry"/>
                </mxCell>
                <mxCell id="AuDMVpWPDX14XM7IN1FL-52" style="edgeStyle=orthogonalEdgeStyle;rounded=1;orthogonalLoop=1;jettySize=auto;html=1;entryX=0;entryY=0.5;entryDx=0;entryDy=0;fontSize=12;sketch=1;" parent="1" source="AuDMVpWPDX14XM7IN1FL-46" target="zGGGupaVOVgGhXEfBQD1-1" edge="1">
                    <mxGeometry relative="1" as="geometry"/>
                </mxCell>
                <mxCell id="44" style="edgeStyle=orthogonalEdgeStyle;html=1;sketch=1;rounded=1;" parent="1" source="AuDMVpWPDX14XM7IN1FL-46" target="6" edge="1">
                    <mxGeometry relative="1" as="geometry">
                        <mxPoint x="-450" y="320" as="targetPoint"/>
                        <Array as="points">
                            <mxPoint x="-100" y="310"/>
                            <mxPoint x="-460" y="310"/>
                        </Array>
                    </mxGeometry>
                </mxCell>
                <mxCell id="45" value="predict_pc" style="edgeLabel;html=1;align=center;verticalAlign=middle;resizable=0;points=[];fontSize=21;sketch=1;rounded=1;" parent="44" vertex="1" connectable="0">
                    <mxGeometry x="-0.0291" y="3" relative="1" as="geometry">
                        <mxPoint as="offset"/>
                    </mxGeometry>
                </mxCell>
                <mxCell id="AuDMVpWPDX14XM7IN1FL-46" value="取指" style="ellipse;shape=cloud;whiteSpace=wrap;html=1;fontSize=12;sketch=1;rounded=1;" parent="1" vertex="1">
                    <mxGeometry x="-160" y="415" width="120" height="80" as="geometry"/>
                </mxCell>
                <mxCell id="AuDMVpWPDX14XM7IN1FL-56" style="edgeStyle=orthogonalEdgeStyle;rounded=1;orthogonalLoop=1;jettySize=auto;html=1;exitX=0.875;exitY=0.5;exitDx=0;exitDy=0;exitPerimeter=0;entryX=0;entryY=0.5;entryDx=0;entryDy=0;fontSize=12;sketch=1;" parent="1" source="AuDMVpWPDX14XM7IN1FL-47" target="AuDMVpWPDX14XM7IN1FL-5" edge="1">
                    <mxGeometry relative="1" as="geometry"/>
                </mxCell>
                <mxCell id="79" style="edgeStyle=orthogonalEdgeStyle;rounded=1;sketch=1;jumpStyle=arc;jumpSize=6;html=1;exitX=0.31;exitY=0.8;exitDx=0;exitDy=0;exitPerimeter=0;fontSize=19;endArrow=block;strokeColor=default;strokeWidth=1;" parent="1" source="AuDMVpWPDX14XM7IN1FL-47" edge="1">
                    <mxGeometry relative="1" as="geometry">
                        <mxPoint x="536" y="600" as="targetPoint"/>
                        <Array as="points">
                            <mxPoint x="107" y="600"/>
                        </Array>
                    </mxGeometry>
                </mxCell>
                <mxCell id="83" value="id_stall_req" style="edgeLabel;html=1;align=center;verticalAlign=middle;resizable=0;points=[];fontSize=12;rotation=90;rounded=1;sketch=1;" parent="79" vertex="1" connectable="0">
                    <mxGeometry x="-0.8586" relative="1" as="geometry">
                        <mxPoint x="-7" y="12" as="offset"/>
                    </mxGeometry>
                </mxCell>
                <mxCell id="AuDMVpWPDX14XM7IN1FL-47" value="译码" style="ellipse;shape=cloud;whiteSpace=wrap;html=1;fontSize=12;sketch=1;rounded=1;" parent="1" vertex="1">
                    <mxGeometry x="70" y="415" width="120" height="80" as="geometry"/>
                </mxCell>
                <mxCell id="AuDMVpWPDX14XM7IN1FL-59" style="edgeStyle=orthogonalEdgeStyle;rounded=1;orthogonalLoop=1;jettySize=auto;html=1;entryX=0;entryY=0.5;entryDx=0;entryDy=0;fontSize=12;sketch=1;" parent="1" source="AuDMVpWPDX14XM7IN1FL-49" target="AuDMVpWPDX14XM7IN1FL-6" edge="1">
                    <mxGeometry relative="1" as="geometry"/>
                </mxCell>
                <mxCell id="AuDMVpWPDX14XM7IN1FL-67" style="edgeStyle=orthogonalEdgeStyle;rounded=1;orthogonalLoop=1;jettySize=auto;html=1;exitX=0.875;exitY=0.5;exitDx=0;exitDy=0;exitPerimeter=0;fontSize=12;sketch=1;jumpStyle=arc;" parent="1" source="AuDMVpWPDX14XM7IN1FL-49" edge="1">
                    <mxGeometry relative="1" as="geometry">
                        <mxPoint x="220" y="450" as="targetPoint"/>
                        <Array as="points">
                            <mxPoint x="440" y="455"/>
                            <mxPoint x="440" y="300"/>
                            <mxPoint x="220" y="300"/>
                        </Array>
                    </mxGeometry>
                </mxCell>
                <mxCell id="AuDMVpWPDX14XM7IN1FL-89" value="执行阶段&lt;br&gt;数据前递(ALU结果)" style="edgeLabel;html=1;align=center;verticalAlign=middle;resizable=0;points=[];fontSize=15;sketch=1;rounded=1;" parent="AuDMVpWPDX14XM7IN1FL-67" vertex="1" connectable="0">
                    <mxGeometry x="0.0255" relative="1" as="geometry">
                        <mxPoint x="-32" y="20" as="offset"/>
                    </mxGeometry>
                </mxCell>
                <mxCell id="81" style="edgeStyle=orthogonalEdgeStyle;rounded=1;sketch=1;jumpStyle=arc;jumpSize=6;html=1;exitX=0.8;exitY=0.8;exitDx=0;exitDy=0;exitPerimeter=0;fontSize=19;endArrow=block;strokeColor=default;strokeWidth=1;entryX=0.101;entryY=0.753;entryDx=0;entryDy=0;entryPerimeter=0;" parent="1" source="AuDMVpWPDX14XM7IN1FL-49" target="54" edge="1">
                    <mxGeometry relative="1" as="geometry">
                        <mxPoint x="510" y="610" as="targetPoint"/>
                        <Array as="points">
                            <mxPoint x="396" y="600"/>
                            <mxPoint x="510" y="600"/>
                        </Array>
                    </mxGeometry>
                </mxCell>
                <mxCell id="84" value="ex_stall_req" style="edgeLabel;html=1;align=center;verticalAlign=middle;resizable=0;points=[];fontSize=12;rounded=1;sketch=1;" parent="81" vertex="1" connectable="0">
                    <mxGeometry x="-0.7208" y="1" relative="1" as="geometry">
                        <mxPoint as="offset"/>
                    </mxGeometry>
                </mxCell>
                <mxCell id="AuDMVpWPDX14XM7IN1FL-49" value="执行" style="ellipse;shape=cloud;whiteSpace=wrap;html=1;fontSize=12;sketch=1;rounded=1;" parent="1" vertex="1">
                    <mxGeometry x="300" y="415" width="120" height="80" as="geometry"/>
                </mxCell>
                <mxCell id="AuDMVpWPDX14XM7IN1FL-62" style="edgeStyle=orthogonalEdgeStyle;rounded=1;orthogonalLoop=1;jettySize=auto;html=1;entryX=0;entryY=0.5;entryDx=0;entryDy=0;fontSize=12;sketch=1;jumpStyle=arc;jumpSize=6;" parent="1" source="AuDMVpWPDX14XM7IN1FL-50" target="AuDMVpWPDX14XM7IN1FL-7" edge="1">
                    <mxGeometry relative="1" as="geometry"/>
                </mxCell>
                <mxCell id="AuDMVpWPDX14XM7IN1FL-68" style="edgeStyle=orthogonalEdgeStyle;rounded=1;orthogonalLoop=1;jettySize=auto;html=1;fontSize=12;sketch=1;jumpStyle=arc;" parent="1" source="AuDMVpWPDX14XM7IN1FL-50" edge="1">
                    <mxGeometry relative="1" as="geometry">
                        <mxPoint x="210" y="450" as="targetPoint"/>
                        <Array as="points">
                            <mxPoint x="680" y="455"/>
                            <mxPoint x="680" y="280"/>
                            <mxPoint x="210" y="280"/>
                        </Array>
                    </mxGeometry>
                </mxCell>
                <mxCell id="AuDMVpWPDX14XM7IN1FL-88" value="访存阶段数据前递&lt;br&gt;（ALU结果或访存结果）" style="edgeLabel;html=1;align=center;verticalAlign=middle;resizable=0;points=[];fontSize=15;sketch=1;rounded=1;" parent="AuDMVpWPDX14XM7IN1FL-68" vertex="1" connectable="0">
                    <mxGeometry x="0.0932" y="-2" relative="1" as="geometry">
                        <mxPoint x="127" y="22" as="offset"/>
                    </mxGeometry>
                </mxCell>
                <mxCell id="85" style="edgeStyle=orthogonalEdgeStyle;rounded=1;sketch=1;jumpStyle=arc;jumpSize=6;html=1;entryX=0.498;entryY=0.099;entryDx=0;entryDy=0;entryPerimeter=0;fontSize=12;endArrow=block;strokeColor=default;strokeWidth=1;" parent="1" source="AuDMVpWPDX14XM7IN1FL-50" target="54" edge="1">
                    <mxGeometry relative="1" as="geometry"/>
                </mxCell>
                <mxCell id="86" value="mem_stall_req" style="edgeLabel;html=1;align=center;verticalAlign=middle;resizable=0;points=[];fontSize=12;rounded=1;rotation=0;sketch=1;" parent="85" vertex="1" connectable="0">
                    <mxGeometry x="-0.0223" y="-1" relative="1" as="geometry">
                        <mxPoint x="21" y="-10" as="offset"/>
                    </mxGeometry>
                </mxCell>
                <mxCell id="93" style="edgeStyle=none;html=1;exitX=0.13;exitY=0.77;exitDx=0;exitDy=0;exitPerimeter=0;entryX=0.139;entryY=0.249;entryDx=0;entryDy=0;entryPerimeter=0;sketch=1;" parent="1" source="AuDMVpWPDX14XM7IN1FL-50" target="54" edge="1">
                    <mxGeometry relative="1" as="geometry"/>
                </mxCell>
                <mxCell id="94" value="trap_bus" style="edgeLabel;html=1;align=center;verticalAlign=middle;resizable=0;points=[];sketch=1;" parent="93" vertex="1" connectable="0">
                    <mxGeometry x="-0.3098" y="-2" relative="1" as="geometry">
                        <mxPoint as="offset"/>
                    </mxGeometry>
                </mxCell>
                <mxCell id="AuDMVpWPDX14XM7IN1FL-50" value="访存" style="ellipse;shape=cloud;whiteSpace=wrap;html=1;fontSize=12;sketch=1;rounded=1;" parent="1" vertex="1">
                    <mxGeometry x="530" y="415" width="120" height="80" as="geometry"/>
                </mxCell>
                <mxCell id="AuDMVpWPDX14XM7IN1FL-80" style="edgeStyle=orthogonalEdgeStyle;rounded=1;orthogonalLoop=1;jettySize=auto;html=1;entryX=0.5;entryY=0;entryDx=0;entryDy=0;fontSize=12;sketch=1;" parent="1" source="AuDMVpWPDX14XM7IN1FL-69" target="AuDMVpWPDX14XM7IN1FL-74" edge="1">
                    <mxGeometry relative="1" as="geometry"/>
                </mxCell>
                <mxCell id="AuDMVpWPDX14XM7IN1FL-81" value="RD寄存器&lt;br style=&quot;font-size: 14px;&quot;&gt;数据写回" style="edgeLabel;html=1;align=center;verticalAlign=middle;resizable=0;points=[];fontSize=14;sketch=1;rounded=1;" parent="AuDMVpWPDX14XM7IN1FL-80" vertex="1" connectable="0">
                    <mxGeometry x="0.0437" y="-2" relative="1" as="geometry">
                        <mxPoint x="2" y="16" as="offset"/>
                    </mxGeometry>
                </mxCell>
                <mxCell id="56" style="edgeStyle=orthogonalEdgeStyle;rounded=1;sketch=1;jumpStyle=arc;html=1;entryX=0.5;entryY=0;entryDx=0;entryDy=0;fontSize=19;" parent="1" source="AuDMVpWPDX14XM7IN1FL-69" target="AuDMVpWPDX14XM7IN1FL-29" edge="1">
                    <mxGeometry relative="1" as="geometry"/>
                </mxCell>
                <mxCell id="57" value="CSR寄存器&lt;br style=&quot;font-size: 14px;&quot;&gt;数据写回" style="edgeLabel;html=1;align=center;verticalAlign=middle;resizable=0;points=[];fontSize=14;rounded=1;sketch=1;" parent="56" vertex="1" connectable="0">
                    <mxGeometry x="-0.4064" y="-2" relative="1" as="geometry">
                        <mxPoint as="offset"/>
                    </mxGeometry>
                </mxCell>
                <mxCell id="AuDMVpWPDX14XM7IN1FL-69" value="写回阶段" style="ellipse;shape=cloud;whiteSpace=wrap;html=1;fontSize=12;sketch=1;rounded=1;" parent="1" vertex="1">
                    <mxGeometry x="760" y="415" width="120" height="80" as="geometry"/>
                </mxCell>
                <mxCell id="AuDMVpWPDX14XM7IN1FL-71" value="" style="group;fillColor=#fff2cc;strokeColor=#d6b656;sketch=1;rounded=1;" parent="1" vertex="1" connectable="0">
                    <mxGeometry x="870" y="630" width="90" height="60" as="geometry"/>
                </mxCell>
                <mxCell id="AuDMVpWPDX14XM7IN1FL-72" value="" style="group;fillColor=#fff2cc;strokeColor=#d6b656;sketch=1;rounded=1;" parent="AuDMVpWPDX14XM7IN1FL-71" vertex="1" connectable="0">
                    <mxGeometry width="90" height="40" as="geometry"/>
                </mxCell>
                <mxCell id="AuDMVpWPDX14XM7IN1FL-73" value="" style="rounded=1;whiteSpace=wrap;html=1;fontSize=8;fillColor=#fff2cc;strokeColor=#d6b656;sketch=1;" parent="AuDMVpWPDX14XM7IN1FL-72" vertex="1">
                    <mxGeometry width="30" height="20" as="geometry"/>
                </mxCell>
                <mxCell id="AuDMVpWPDX14XM7IN1FL-74" value="" style="rounded=1;whiteSpace=wrap;html=1;fontSize=8;fillColor=#fff2cc;strokeColor=#d6b656;sketch=1;" parent="AuDMVpWPDX14XM7IN1FL-72" vertex="1">
                    <mxGeometry x="30" width="30" height="20" as="geometry"/>
                </mxCell>
                <mxCell id="AuDMVpWPDX14XM7IN1FL-75" value="" style="rounded=1;whiteSpace=wrap;html=1;fontSize=8;fillColor=#fff2cc;strokeColor=#d6b656;sketch=1;" parent="AuDMVpWPDX14XM7IN1FL-72" vertex="1">
                    <mxGeometry x="60" width="30" height="20" as="geometry"/>
                </mxCell>
                <mxCell id="AuDMVpWPDX14XM7IN1FL-76" value="" style="rounded=1;whiteSpace=wrap;html=1;fontSize=8;fillColor=#fff2cc;strokeColor=#d6b656;sketch=1;" parent="AuDMVpWPDX14XM7IN1FL-72" vertex="1">
                    <mxGeometry x="60" y="20" width="30" height="20" as="geometry"/>
                </mxCell>
                <mxCell id="AuDMVpWPDX14XM7IN1FL-77" value="" style="rounded=1;whiteSpace=wrap;html=1;fontSize=8;fillColor=#fff2cc;strokeColor=#d6b656;sketch=1;" parent="AuDMVpWPDX14XM7IN1FL-72" vertex="1">
                    <mxGeometry x="30" y="20" width="30" height="20" as="geometry"/>
                </mxCell>
                <mxCell id="AuDMVpWPDX14XM7IN1FL-78" value="" style="rounded=1;whiteSpace=wrap;html=1;fontSize=8;fillColor=#fff2cc;strokeColor=#d6b656;sketch=1;" parent="AuDMVpWPDX14XM7IN1FL-72" vertex="1">
                    <mxGeometry y="20" width="30" height="20" as="geometry"/>
                </mxCell>
                <mxCell id="AuDMVpWPDX14XM7IN1FL-79" value="通用寄存器组" style="text;html=1;strokeColor=#d6b656;fillColor=#fff2cc;align=center;verticalAlign=middle;whiteSpace=wrap;rounded=1;fontSize=12;sketch=1;" parent="AuDMVpWPDX14XM7IN1FL-71" vertex="1">
                    <mxGeometry y="40" width="90" height="20" as="geometry"/>
                </mxCell>
                <mxCell id="AuDMVpWPDX14XM7IN1FL-82" style="edgeStyle=orthogonalEdgeStyle;rounded=1;orthogonalLoop=1;jettySize=auto;html=1;entryX=0.66;entryY=0.965;entryDx=0;entryDy=0;entryPerimeter=0;fontSize=12;sketch=1;jumpStyle=arc;" parent="1" source="AuDMVpWPDX14XM7IN1FL-73" target="AuDMVpWPDX14XM7IN1FL-47" edge="1">
                    <mxGeometry relative="1" as="geometry">
                        <Array as="points">
                            <mxPoint x="149" y="640"/>
                        </Array>
                    </mxGeometry>
                </mxCell>
                <mxCell id="AuDMVpWPDX14XM7IN1FL-84" value="RS1数据读取" style="edgeLabel;html=1;align=center;verticalAlign=middle;resizable=0;points=[];fontSize=12;sketch=1;rounded=1;" parent="AuDMVpWPDX14XM7IN1FL-82" vertex="1" connectable="0">
                    <mxGeometry x="-0.1015" y="-2" relative="1" as="geometry">
                        <mxPoint as="offset"/>
                    </mxGeometry>
                </mxCell>
                <mxCell id="AuDMVpWPDX14XM7IN1FL-83" style="edgeStyle=orthogonalEdgeStyle;rounded=1;orthogonalLoop=1;jettySize=auto;html=1;entryX=0.55;entryY=0.95;entryDx=0;entryDy=0;entryPerimeter=0;fontSize=12;sketch=1;jumpStyle=arc;" parent="1" source="AuDMVpWPDX14XM7IN1FL-78" target="AuDMVpWPDX14XM7IN1FL-47" edge="1">
                    <mxGeometry relative="1" as="geometry">
                        <Array as="points">
                            <mxPoint x="136" y="660"/>
                        </Array>
                    </mxGeometry>
                </mxCell>
                <mxCell id="AuDMVpWPDX14XM7IN1FL-85" value="RS2数据读取" style="edgeLabel;html=1;align=center;verticalAlign=middle;resizable=0;points=[];fontSize=12;sketch=1;rounded=1;" parent="AuDMVpWPDX14XM7IN1FL-83" vertex="1" connectable="0">
                    <mxGeometry x="-0.1443" y="1" relative="1" as="geometry">
                        <mxPoint as="offset"/>
                    </mxGeometry>
                </mxCell>
                <mxCell id="AuDMVpWPDX14XM7IN1FL-87" value="&lt;h1&gt;写回阶段数据前递&lt;/h1&gt;&lt;div&gt;如果 rd_addr = rsx_addr，直接赋值，进行数据前递&lt;/div&gt;" style="text;html=1;strokeColor=none;fillColor=none;spacing=5;spacingTop=-20;whiteSpace=wrap;overflow=hidden;rounded=1;fontSize=12;sketch=1;" parent="1" vertex="1">
                    <mxGeometry x="1000" y="590" width="210" height="120" as="geometry"/>
                </mxCell>
                <mxCell id="16" style="edgeStyle=none;html=1;entryX=0.5;entryY=0;entryDx=0;entryDy=0;sketch=1;rounded=1;" parent="1" source="6" target="105" edge="1">
                    <mxGeometry relative="1" as="geometry">
                        <mxPoint x="-415" y="630" as="targetPoint"/>
                    </mxGeometry>
                </mxCell>
                <mxCell id="17" value="&lt;span style=&quot;font-size: 12px ; background-color: rgb(248 , 249 , 250)&quot;&gt;NPC&lt;br&gt;&lt;/span&gt;" style="edgeLabel;html=1;align=center;verticalAlign=middle;resizable=0;points=[];sketch=1;rounded=1;" parent="16" vertex="1" connectable="0">
                    <mxGeometry x="-0.1726" y="-2" relative="1" as="geometry">
                        <mxPoint as="offset"/>
                    </mxGeometry>
                </mxCell>
                <mxCell id="37" style="edgeStyle=none;html=1;entryX=0;entryY=0.5;entryDx=0;entryDy=0;sketch=1;rounded=1;" parent="1" source="6" target="36" edge="1">
                    <mxGeometry relative="1" as="geometry"/>
                </mxCell>
                <mxCell id="41" value="NPC" style="edgeLabel;html=1;align=center;verticalAlign=middle;resizable=0;points=[];sketch=1;rounded=1;" parent="37" vertex="1" connectable="0">
                    <mxGeometry x="0.1257" y="1" relative="1" as="geometry">
                        <mxPoint as="offset"/>
                    </mxGeometry>
                </mxCell>
                <mxCell id="6" value="pre 取指" style="ellipse;shape=cloud;whiteSpace=wrap;html=1;fontSize=12;sketch=1;rounded=1;" parent="1" vertex="1">
                    <mxGeometry x="-468" y="415" width="110" height="80" as="geometry"/>
                </mxCell>
                <mxCell id="26" value="" style="endArrow=block;html=1;rounded=1;jumpStyle=arc;edgeStyle=orthogonalEdgeStyle;endFill=1;sketch=1;" parent="1" source="AuDMVpWPDX14XM7IN1FL-49" target="6" edge="1">
                    <mxGeometry width="50" height="50" relative="1" as="geometry">
                        <mxPoint x="410" y="370" as="sourcePoint"/>
                        <mxPoint x="-450" y="200" as="targetPoint"/>
                        <Array as="points">
                            <mxPoint x="390" y="240"/>
                            <mxPoint x="-600" y="240"/>
                            <mxPoint x="-600" y="455"/>
                        </Array>
                    </mxGeometry>
                </mxCell>
                <mxCell id="28" value="redirect_pc" style="edgeLabel;html=1;align=center;verticalAlign=middle;resizable=0;points=[];sketch=1;rounded=1;fontSize=22;" parent="26" vertex="1" connectable="0">
                    <mxGeometry x="0.0034" y="-1" relative="1" as="geometry">
                        <mxPoint as="offset"/>
                    </mxGeometry>
                </mxCell>
                <mxCell id="39" style="edgeStyle=none;html=1;sketch=1;rounded=1;" parent="1" source="36" target="AuDMVpWPDX14XM7IN1FL-46" edge="1">
                    <mxGeometry relative="1" as="geometry"/>
                </mxCell>
                <mxCell id="40" value="PC" style="edgeLabel;html=1;align=center;verticalAlign=middle;resizable=0;points=[];sketch=1;rounded=1;" parent="39" vertex="1" connectable="0">
                    <mxGeometry x="-0.2349" y="2" relative="1" as="geometry">
                        <mxPoint as="offset"/>
                    </mxGeometry>
                </mxCell>
                <mxCell id="36" value="PC 寄存器" style="rounded=1;whiteSpace=wrap;html=1;fillColor=#fff2cc;strokeColor=#d6b656;sketch=1;" parent="1" vertex="1">
                    <mxGeometry x="-300" y="360" width="30" height="190" as="geometry"/>
                </mxCell>
                <mxCell id="71" style="edgeStyle=orthogonalEdgeStyle;rounded=1;sketch=1;jumpStyle=arc;jumpSize=6;html=1;entryX=0.5;entryY=1;entryDx=0;entryDy=0;fontSize=9;endArrow=block;strokeColor=default;strokeWidth=1;" parent="1" source="54" target="AuDMVpWPDX14XM7IN1FL-6" edge="1">
                    <mxGeometry relative="1" as="geometry"/>
                </mxCell>
                <mxCell id="72" style="edgeStyle=orthogonalEdgeStyle;rounded=1;sketch=1;jumpStyle=arc;jumpSize=6;html=1;entryX=0.5;entryY=1;entryDx=0;entryDy=0;fontSize=9;endArrow=block;strokeColor=default;strokeWidth=1;" parent="1" source="54" target="AuDMVpWPDX14XM7IN1FL-5" edge="1">
                    <mxGeometry relative="1" as="geometry"/>
                </mxCell>
                <mxCell id="87" style="edgeStyle=orthogonalEdgeStyle;rounded=1;sketch=1;jumpStyle=arc;jumpSize=6;html=1;exitX=0.96;exitY=0.7;exitDx=0;exitDy=0;exitPerimeter=0;entryX=-0.064;entryY=0.527;entryDx=0;entryDy=0;entryPerimeter=0;fontSize=12;endArrow=block;strokeColor=default;strokeWidth=4;" parent="1" source="54" target="68" edge="1">
                    <mxGeometry relative="1" as="geometry"/>
                </mxCell>
                <mxCell id="54" value="&lt;font style=&quot;font-size: 15px&quot;&gt;clint &amp;amp; ctrl&lt;/font&gt;" style="ellipse;shape=cloud;whiteSpace=wrap;html=1;fontSize=12;sketch=1;rounded=1;" parent="1" vertex="1">
                    <mxGeometry x="530" y="540" width="120" height="80" as="geometry"/>
                </mxCell>
                <mxCell id="58" style="edgeStyle=orthogonalEdgeStyle;rounded=1;sketch=1;jumpStyle=arc;html=1;entryX=0.509;entryY=0.966;entryDx=0;entryDy=0;entryPerimeter=0;fontSize=14;" parent="1" source="AuDMVpWPDX14XM7IN1FL-33" target="AuDMVpWPDX14XM7IN1FL-47" edge="1">
                    <mxGeometry relative="1" as="geometry">
                        <Array as="points">
                            <mxPoint x="131" y="795"/>
                            <mxPoint x="131" y="520"/>
                        </Array>
                    </mxGeometry>
                </mxCell>
                <mxCell id="59" value="CSR数据读取" style="edgeLabel;html=1;align=center;verticalAlign=middle;resizable=0;points=[];fontSize=14;rounded=1;sketch=1;" parent="58" vertex="1" connectable="0">
                    <mxGeometry x="-0.3507" y="2" relative="1" as="geometry">
                        <mxPoint as="offset"/>
                    </mxGeometry>
                </mxCell>
                <mxCell id="66" style="edgeStyle=orthogonalEdgeStyle;rounded=1;sketch=1;jumpStyle=arc;jumpSize=6;html=1;entryX=0.25;entryY=0.813;entryDx=0;entryDy=0;entryPerimeter=0;fontSize=19;strokeWidth=4;endArrow=block;strokeColor=default;exitX=0;exitY=0.5;exitDx=0;exitDy=0;" parent="1" source="AuDMVpWPDX14XM7IN1FL-28" target="54" edge="1">
                    <mxGeometry relative="1" as="geometry">
                        <mxPoint x="730" y="765" as="sourcePoint"/>
                        <Array as="points">
                            <mxPoint x="560" y="765"/>
                        </Array>
                    </mxGeometry>
                </mxCell>
                <mxCell id="67" value="读取TARP&lt;br style=&quot;font-size: 15px&quot;&gt;必要寄存器" style="edgeLabel;html=1;align=center;verticalAlign=middle;resizable=0;points=[];fontSize=15;rounded=1;sketch=1;" parent="66" vertex="1" connectable="0">
                    <mxGeometry x="-0.299" y="1" relative="1" as="geometry">
                        <mxPoint x="-83" y="-56" as="offset"/>
                    </mxGeometry>
                </mxCell>
                <mxCell id="88" style="edgeStyle=orthogonalEdgeStyle;rounded=1;sketch=1;jumpStyle=arc;jumpSize=6;html=1;entryX=0.5;entryY=0;entryDx=0;entryDy=0;fontSize=12;endArrow=block;strokeColor=default;strokeWidth=4;" parent="1" source="68" target="AuDMVpWPDX14XM7IN1FL-28" edge="1">
                    <mxGeometry relative="1" as="geometry"/>
                </mxCell>
                <mxCell id="89" value="写TRAP&lt;br style=&quot;font-size: 14px;&quot;&gt;必要寄存器" style="edgeLabel;html=1;align=center;verticalAlign=middle;resizable=0;points=[];fontSize=14;rounded=1;sketch=1;" parent="88" vertex="1" connectable="0">
                    <mxGeometry x="0.5796" relative="1" as="geometry">
                        <mxPoint x="-40" y="2" as="offset"/>
                    </mxGeometry>
                </mxCell>
                <mxCell id="68" value="&lt;font style=&quot;font-size: 9px&quot;&gt;mcause&lt;br&gt;mtval&lt;br&gt;mepc&lt;br&gt;等&lt;br&gt;&lt;/font&gt;" style="rounded=1;whiteSpace=wrap;html=1;sketch=1;fontSize=15;fillColor=#fff2cc;strokeColor=#d6b656;" parent="1" vertex="1">
                    <mxGeometry x="690" y="560" width="30" height="70" as="geometry"/>
                </mxCell>
                <mxCell id="91" value="D触发器" style="rounded=1;whiteSpace=wrap;html=1;fillColor=#fff2cc;strokeColor=#d6b656;sketch=1;" parent="1" vertex="1">
                    <mxGeometry x="-680" y="260" width="30" height="50" as="geometry"/>
                </mxCell>
                <mxCell id="92" value="组合逻辑电路" style="ellipse;shape=cloud;whiteSpace=wrap;html=1;fontSize=12;sketch=1;rounded=1;" parent="1" vertex="1">
                    <mxGeometry x="-820" y="245" width="110" height="80" as="geometry"/>
                </mxCell>
                <mxCell id="95" value="写回不阶段不会产生新的异常" style="text;html=1;strokeColor=none;fillColor=none;align=center;verticalAlign=middle;whiteSpace=wrap;rounded=0;fontSize=24;sketch=1;" parent="1" vertex="1">
                    <mxGeometry x="760" y="310" width="200" height="110" as="geometry"/>
                </mxCell>
                <mxCell id="106" value="" style="group;sketch=1;" parent="1" vertex="1" connectable="0">
                    <mxGeometry x="-629" y="700" width="430" height="190" as="geometry"/>
                </mxCell>
                <mxCell id="105" value="" style="rounded=0;whiteSpace=wrap;html=1;fontSize=30;sketch=1;" parent="106" vertex="1">
                    <mxGeometry width="430" height="190" as="geometry"/>
                </mxCell>
                <mxCell id="103" value="" style="group;sketch=1;" parent="106" vertex="1" connectable="0">
                    <mxGeometry x="39.09090909090909" y="57" width="351.8181818181818" height="76" as="geometry"/>
                </mxCell>
                <mxCell id="97" value="ICACHE" style="rounded=0;whiteSpace=wrap;html=1;fontSize=30;sketch=1;" parent="103" vertex="1">
                    <mxGeometry width="166.13636363636365" height="76" as="geometry"/>
                </mxCell>
                <mxCell id="101" value="UNCACHE" style="rounded=0;whiteSpace=wrap;html=1;fontSize=30;sketch=1;" parent="103" vertex="1">
                    <mxGeometry x="185.6818181818182" width="166.13636363636365" height="76" as="geometry"/>
                </mxCell>
                <mxCell id="107" value="" style="group;sketch=1;" parent="1" vertex="1" connectable="0">
                    <mxGeometry x="397" y="940" width="430" height="190" as="geometry"/>
                </mxCell>
                <mxCell id="108" value="" style="rounded=0;whiteSpace=wrap;html=1;fontSize=30;sketch=1;" parent="107" vertex="1">
                    <mxGeometry width="430" height="190" as="geometry"/>
                </mxCell>
                <mxCell id="109" value="" style="group;sketch=1;" parent="107" vertex="1" connectable="0">
                    <mxGeometry x="39.09090909090909" y="57" width="351.8181818181818" height="76" as="geometry"/>
                </mxCell>
                <mxCell id="110" value="DCACHE" style="rounded=0;whiteSpace=wrap;html=1;fontSize=30;sketch=1;" parent="109" vertex="1">
                    <mxGeometry width="166.13636363636365" height="76" as="geometry"/>
                </mxCell>
                <mxCell id="111" value="UNCACHE" style="rounded=0;whiteSpace=wrap;html=1;fontSize=30;sketch=1;" parent="109" vertex="1">
                    <mxGeometry x="185.6818181818182" width="166.13636363636365" height="76" as="geometry"/>
                </mxCell>
                <mxCell id="123" style="edgeStyle=orthogonalEdgeStyle;html=1;exitX=0.25;exitY=1;exitDx=0;exitDy=0;entryX=0.25;entryY=0;entryDx=0;entryDy=0;fontSize=30;startArrow=none;startFill=0;endArrow=classic;endFill=1;sketch=1;" parent="1" source="112" target="122" edge="1">
                    <mxGeometry relative="1" as="geometry"/>
                </mxCell>
                <mxCell id="112" value="AXI4_arb" style="rounded=0;whiteSpace=wrap;html=1;fontSize=30;sketch=1;" parent="1" vertex="1">
                    <mxGeometry x="-620" y="1250" width="1520" height="60" as="geometry"/>
                </mxCell>
                <mxCell id="114" style="edgeStyle=none;html=1;exitX=0.25;exitY=1;exitDx=0;exitDy=0;entryX=0.062;entryY=0.017;entryDx=0;entryDy=0;entryPerimeter=0;fontSize=30;sketch=1;" parent="1" source="105" target="112" edge="1">
                    <mxGeometry relative="1" as="geometry"/>
                </mxCell>
                <mxCell id="120" value="addr_req" style="edgeLabel;html=1;align=center;verticalAlign=middle;resizable=0;points=[];fontSize=30;sketch=1;" parent="114" vertex="1" connectable="0">
                    <mxGeometry x="-0.2284" y="-4" relative="1" as="geometry">
                        <mxPoint as="offset"/>
                    </mxGeometry>
                </mxCell>
                <mxCell id="115" style="edgeStyle=none;html=1;exitX=0.75;exitY=1;exitDx=0;exitDy=0;entryX=0.201;entryY=-0.094;entryDx=0;entryDy=0;entryPerimeter=0;fontSize=30;verticalAlign=top;startArrow=block;startFill=1;endArrow=none;endFill=0;sketch=1;" parent="1" source="105" target="112" edge="1">
                    <mxGeometry relative="1" as="geometry"/>
                </mxCell>
                <mxCell id="121" value="data" style="edgeLabel;html=1;align=center;verticalAlign=middle;resizable=0;points=[];fontSize=30;sketch=1;" parent="115" vertex="1" connectable="0">
                    <mxGeometry x="-0.2142" y="1" relative="1" as="geometry">
                        <mxPoint as="offset"/>
                    </mxGeometry>
                </mxCell>
                <mxCell id="116" value="addr_req" style="edgeStyle=none;html=1;exitX=0.25;exitY=1;exitDx=0;exitDy=0;entryX=0.738;entryY=-0.022;entryDx=0;entryDy=0;entryPerimeter=0;fontSize=30;startArrow=none;startFill=0;endArrow=classic;endFill=1;sketch=1;" parent="1" source="108" target="112" edge="1">
                    <mxGeometry relative="1" as="geometry"/>
                </mxCell>
                <mxCell id="117" value="data" style="edgeStyle=none;html=1;exitX=0.75;exitY=1;exitDx=0;exitDy=0;entryX=0.883;entryY=-0.003;entryDx=0;entryDy=0;entryPerimeter=0;fontSize=30;startArrow=block;startFill=1;endArrow=none;endFill=0;sketch=1;" parent="1" source="108" target="112" edge="1">
                    <mxGeometry relative="1" as="geometry"/>
                </mxCell>
                <mxCell id="118" style="edgeStyle=orthogonalEdgeStyle;html=1;exitX=1;exitY=0.5;exitDx=0;exitDy=0;fontSize=30;startArrow=none;startFill=0;endArrow=classic;endFill=1;entryX=0.13;entryY=0.77;entryDx=0;entryDy=0;entryPerimeter=0;sketch=1;" parent="1" source="105" target="AuDMVpWPDX14XM7IN1FL-46" edge="1">
                    <mxGeometry relative="1" as="geometry">
                        <mxPoint x="-160" y="490" as="targetPoint"/>
                    </mxGeometry>
                </mxCell>
                <mxCell id="119" value="inst" style="edgeLabel;html=1;align=center;verticalAlign=middle;resizable=0;points=[];fontSize=30;sketch=1;" parent="118" vertex="1" connectable="0">
                    <mxGeometry x="-0.2424" y="1" relative="1" as="geometry">
                        <mxPoint as="offset"/>
                    </mxGeometry>
                </mxCell>
                <mxCell id="124" style="edgeStyle=orthogonalEdgeStyle;html=1;exitX=0.75;exitY=0;exitDx=0;exitDy=0;entryX=0.75;entryY=1;entryDx=0;entryDy=0;fontSize=30;startArrow=none;startFill=0;endArrow=classic;endFill=1;sketch=1;" parent="1" source="122" target="112" edge="1">
                    <mxGeometry relative="1" as="geometry"/>
                </mxCell>
                <mxCell id="122" value="AXI4_rw" style="rounded=0;whiteSpace=wrap;html=1;fontSize=30;sketch=1;" parent="1" vertex="1">
                    <mxGeometry x="-620" y="1430" width="1520" height="60" as="geometry"/>
                </mxCell>
                <mxCell id="126" style="edgeStyle=orthogonalEdgeStyle;sketch=1;html=1;exitX=0.13;exitY=0.77;exitDx=0;exitDy=0;exitPerimeter=0;entryX=0.368;entryY=-0.019;entryDx=0;entryDy=0;entryPerimeter=0;fontSize=30;startArrow=none;startFill=0;endArrow=classic;endFill=1;" parent="1" source="125" target="108" edge="1">
                    <mxGeometry relative="1" as="geometry"/>
                </mxCell>
                <mxCell id="127" style="edgeStyle=orthogonalEdgeStyle;sketch=1;html=1;exitX=0.8;exitY=0.8;exitDx=0;exitDy=0;exitPerimeter=0;entryX=0.555;entryY=0;entryDx=0;entryDy=0;entryPerimeter=0;fontSize=30;startArrow=classic;startFill=1;endArrow=none;endFill=0;" parent="1" source="125" target="108" edge="1">
                    <mxGeometry relative="1" as="geometry"/>
                </mxCell>
                <mxCell id="125" value="访存" style="ellipse;shape=cloud;whiteSpace=wrap;html=1;fontSize=12;sketch=1;rounded=1;" parent="1" vertex="1">
                    <mxGeometry x="540" y="820" width="120" height="80" as="geometry"/>
                </mxCell>
                <mxCell id="128" value="" style="group" vertex="1" connectable="0" parent="1">
                    <mxGeometry x="560" y="60" width="450" height="90" as="geometry"/>
                </mxCell>
                <UserObject label="https://img-bc.icode.best/cc83a6b26a484e24b09192079fc30fad.png#pic_center" link="https://img-bc.icode.best/cc83a6b26a484e24b09192079fc30fad.png#pic_center" id="30">
                    <mxCell style="text;whiteSpace=wrap;html=1;sketch=1;rounded=1;" parent="128" vertex="1">
                        <mxGeometry width="450" height="30" as="geometry"/>
                    </mxCell>
                </UserObject>
                <UserObject label="https://www.writebug.com/git/jeny/fivecpu" link="https://www.writebug.com/git/jeny/fivecpu" id="32">
                    <mxCell style="text;whiteSpace=wrap;html=1;sketch=1;rounded=1;" parent="128" vertex="1">
                        <mxGeometry y="30" width="240" height="30" as="geometry"/>
                    </mxCell>
                </UserObject>
                <UserObject label="https://www.rvmcu.com/campus.html" link="https://www.rvmcu.com/campus.html" id="35">
                    <mxCell style="text;whiteSpace=wrap;html=1;sketch=1;rounded=1;" parent="128" vertex="1">
                        <mxGeometry y="60" width="220" height="30" as="geometry"/>
                    </mxCell>
                </UserObject>
            </root>
        </mxGraphModel>
    </diagram>
</mxfile>